<!--?xml version="1.0" standalone="no"?-->
              <svg id="sw-js-blob-svg" viewBox="0 0 100 100" xmlns="http://www.w3.org/2000/svg" version="1.1">
                    <defs> 
                        <linearGradient id="sw-gradient" x1="0" x2="1" y1="1" y2="0">
                            <stop id="stop1" stop-color="rgba(55, 248, 179.354, 1)" offset="0%"></stop>
                            <stop id="stop2" stop-color="rgba(31, 195.107, 251, 1)" offset="100%"></stop>
                        </linearGradient>
                    </defs>
                <path fill="url(#sw-gradient)" d="M20.9,-36.5C25.8,-33.5,27.4,-25.1,31.3,-18.1C35.3,-11.2,41.5,-5.6,42.7,0.7C43.8,6.9,39.9,13.9,35.6,20.1C31.3,26.4,26.5,31.9,20.4,36.2C14.4,40.4,7.2,43.3,0.3,42.8C-6.7,42.3,-13.3,38.5,-19.9,34.6C-26.5,30.7,-32.9,26.7,-36.7,20.9C-40.5,15.1,-41.6,7.6,-40.7,0.6C-39.7,-6.5,-36.7,-12.9,-32.8,-18.6C-29,-24.3,-24.3,-29.2,-18.7,-31.8C-13.1,-34.4,-6.6,-34.8,0.7,-36.1C8.1,-37.4,16.1,-39.6,20.9,-36.5Z" width="100%" height="100%" transform="translate(50 50)" stroke-width="0" style="transition: all 0.3s ease 0s;" stroke="url(#sw-gradient)"></path>
              </svg>